<svg id="Layer_1" data-name="Layer 1" xmlns="http://www.w3.org/2000/svg" width="400" height="400" viewBox="0 0 400 400"><defs><style>.cls-1{fill:#d77900;}.cls-2{fill:#fff;}</style></defs><title>Pacific Northwest National Laboratory (PNNL) logo</title><path class="cls-1" d="M149.24,205.76c-.68,0-3.32-3-8.1-8.59-1.86-2-3.91-4.49-6.25-7.13-3.32,3.62-3.8,4.4-3.8,4.49A9.28,9.28,0,0,1,124,198a6.71,6.71,0,0,1-4.2-1.46,6.32,6.32,0,0,1-2.14-4.4,10.31,10.31,0,0,1,2.63-7.22c1.56-2,3.22-3.81,5-5.66-6.35-6.83-12.79-13.37-19-19.33-5.08,4.1-8.3,6.84-8.59,7.23a8.36,8.36,0,0,1-5,1.95,5.69,5.69,0,0,1-4-1.66,4.77,4.77,0,0,1-1.17-3.61,7.58,7.58,0,0,1,2.92-5.27Q94,155.3,98,152.37c-5.18-4.59-10.35-9-15.52-13q-4-3.22-7.32-5.86c-7.32,3.22-11.72,5.37-12,5.56a7.58,7.58,0,0,1-2.93.69A4.64,4.64,0,0,1,56,137.53a3.64,3.64,0,0,1-.2-3A6.21,6.21,0,0,1,59.15,131,77.73,77.73,0,0,1,67,127.48c-6.44-4.78-13.28-9.37-20.89-14.25H44.22c-11.62,0-19.72.49-20.31.58h-.19A5.12,5.12,0,0,1,18.64,109a4.84,4.84,0,0,1,1.17-3.61,5.17,5.17,0,0,1,3.62-1.76c.29,0,2.53-.1,6.44-.19A306.37,306.37,0,0,0,2.54,88.92C0,87.75-.68,84,1,80.24,2.15,77.41,4.69,75.45,7,75.45a3.84,3.84,0,0,1,1.75.39C9.86,76,30.55,86.68,55,104a379.34,379.34,0,0,1,58.57,7.22,382.56,382.56,0,0,1,48-11c8.78-1.66,18.15-2.93,27.72-3.91,4.59-2.24,9.17-4.39,13.47-6.24a434.6,434.6,0,0,1,63.74-24.11c63.24-39.14,127.67-61.3,133-61.3.2,0,.39,0,.49.2.2.39-2.93,1.85-12.69,6.44-18.45,8.49-52.7,24.3-89.8,46.46,13.57-3,23.82-4.69,26.94-4.69.88,0,1,.1,1,.3s-1.66.88-9.86,3.12c-7.12,2-18,5-30.84,9.08-10,6.25-19.52,12.69-28.21,18.93-4.78,3.22-9.76,6.74-14.93,10.45,13.95.68,23.23,2,23.71,2.63v.1c0,.2-.78.29-5.66.29h-5c-4.49,0-10.55,0-17.57.2-15.82,11.71-32.21,25.08-48.61,39.53,9.66,5.27,15.91,9.56,16,10.64v.19h-.1a25.42,25.42,0,0,1-4.49-2c-3.22-1.46-8.1-3.81-14.15-6.44-24.31,21.77-41.29,39.63-47.54,46.36,7.42,10.35,11.52,17.86,11.23,19,0,.09,0,.19-.2.29ZM113,155c5.76,6.35,11.42,13.08,16.69,19.82,7.12-7.32,22.06-22.06,42.85-40-6.93-2.73-13.76-5.08-20.4-7.13C135.28,138.51,121.62,148.46,113,155ZM87.65,130c.59.58,1.17,1.07,1.76,1.66,5.46,4.78,10.93,9.95,16.2,15.42,7.32-5.47,19.23-13.86,33.87-23a213.13,213.13,0,0,0-22.06-4.59l-1.56-.29-1.17-.19c-9.57,3.12-19,6.44-28.21,10.15l1.17.88Zm70.47-6.15c6,2.34,12.2,5,18.16,7.81C189.94,120,203.61,109,217,99.17c-6.25.39-12.3,1-18,1.56C185.94,107.37,172.18,115.08,158.12,123.87Zm-89.89-10c3.9,3,7.51,6,11,8.88,5.85-2.24,11.9-4.39,17.86-6.34-9.27-1.17-18.94-2-28.89-2.54Zm60.81.78c5.66,1.37,11.61,3.13,17.56,5.08,8.79-5.37,17.77-10.54,26.75-15.33-3.42.59-7,1.37-10.64,2.15C152.17,108.54,140.85,111.28,129,114.69Zm116.05-35c-12.3,4.88-23.82,10-34.36,15.23,4.39-.2,8.59-.2,12.5-.3,7-5,14.44-10,21.86-14.93Z"/><path class="cls-2" d="M58.27,335.58a22.31,22.31,0,0,0,44.61-.49,22.31,22.31,0,1,0-44.61.49Zm11.23,0c0-7.33,4.58-12.4,11.12-12.4s11,5.07,11,12.4S87.16,348,80.62,348,69.5,342.9,69.5,335.58Z"/><polygon class="cls-2" points="41.09 300.24 41.09 337.92 12.01 300.24 0 300.24 0 356.66 11.62 356.66 11.62 317.52 42.07 356.66 53.49 356.66 53.49 300.24 41.09 300.24"/><path class="cls-2" d="M118.2,318.69v-4.2H107.46v42.17H118.2V338.21c.1-3.12-.19-13.18,6.35-14a10.84,10.84,0,0,1,6.34.78V314.3a20.42,20.42,0,0,0-4.29-.78C121.81,313.42,119.67,316.44,118.2,318.69Z"/><path class="cls-2" d="M142.51,304.54v9.76h-6.84V325h6.84v20.31c0,8.78,4.29,12.68,14,12.68a48.41,48.41,0,0,0,9.18-.87l1.27-.2V346.6l-1.27.4a30.29,30.29,0,0,1-7.22,1.07c-3.62,0-5.18-1.47-5.18-4.88V325.13h10l3.32-10.74H153.24V301.32Z"/><path class="cls-2" d="M171.69,297v59.64h10.74V328.35c2.14-2.73,4.78-5.27,11.12-5.27,4.4,0,7.23,1.76,7.23,10.25v23.33h10.73V330c0-11-5.46-16.79-15.91-16.79-6.44,0-10.44,2.35-13.08,5V293.8Z"/><path class="cls-2" d="M270.08,315.27s-7.91,21.38-9.47,25.58c-1.46-4.2-9.37-25.58-9.37-25.58h-9.18s-7.8,21.28-9.27,25.48c-1.46-4.3-9.27-25.48-9.27-25.48H212.2L228,356.66h9.66s7.52-21.77,9-26.16c1.47,4.29,9.08,26.16,9.08,26.16h9.76l15.62-41.39Z"/><path class="cls-2" d="M346.89,329.82c-5.36-.78-8.1-1.27-8.1-3.42,0-1.76,1.95-3.81,7.52-3.81,5.17,0,8.1,2,9.86,3.71l8.29-6.15c-6.15-6.24-14.35-7-18-7-14.93,0-18.93,8.68-18.93,13.76,0,8,5.46,12.2,18.25,14,9.47,1.36,10.64,1.66,10.64,3.71,0,2.92-4.3,4-8,4-5.86,0-10.06-2-12.6-5.76l-8.49,6.34c3.22,4.1,8,8.88,20.3,8.88,12.69,0,20-5.17,20-14.15C367.68,332.65,356.65,331.09,346.89,329.82Z"/><path class="cls-2" d="M374.22,304.54v9.76h-6.83V325h6.83v20.31c0,8.78,4.3,12.68,14,12.68a48.48,48.48,0,0,0,9.18-.87l1.26-.2V346.6l-1.26.4a30.45,30.45,0,0,1-7.23,1.07c-3.61,0-5.17-1.47-5.17-4.88V325.13h11.62l1.65-10.74H385V301.32Z"/><path class="cls-2" d="M302.38,313.22c-15.22,0-22.05,11.23-22.05,22.36,0,13.47,9.17,22.54,22.74,22.54,11.13,0,16.49-5.95,18.84-9.56l-9.76-5.18c-1,2.35-4,5-9.28,5-6.05-.29-9.76-3.32-10.93-8.88h32.8v-1.17C324.54,322.5,316.44,313.32,302.38,313.22Zm-10.24,16.69c1.56-4.58,4.78-6.93,9.95-6.93,5.66,0,9,2.25,10.35,6.93Z"/><path class="cls-2" d="M0,230v56.31H12.1v-21h9.76c8.5,0,24.31,0,24.31-17.57s-15.72-17.67-24.31-17.67Zm24.21,11.22c6.73,0,9.85,1,9.85,6.44s-3.22,6.54-9.85,6.54H12.1v-13Z"/><path class="cls-2" d="M88.72,284.82c-.19-.49-.58-1.76-.58-6.05v-20c0-5.17,0-15.91-19.72-15.91-9.86,0-16.49,3.42-19.23,10.05l10.55,2.54c.87-1.37,2.92-3.12,8.78-3.12s8.88,1.46,8.88,4.19v.88C67.25,258.08,46,259.74,46,274.57c0,10.35,9.86,13.18,15.72,13.18A30.42,30.42,0,0,0,77.5,283a15.2,15.2,0,0,0,.39,2.53l.2.78H89.51ZM77.4,273.69c-3.71,2.25-8.59,4.79-14.44,4.79-2.05,0-3.52-.49-4.4-1.47a4.51,4.51,0,0,1-1.07-2.93V274c.1-2.15,1-4.3,7.32-5.86a61,61,0,0,1,12.49-1.86v7.42Z"/><path class="cls-2" d="M126.21,271.94c-1.37,3-5,5.75-10.84,5.75-8.39,0-11.32-6.83-11.32-13.07a11.68,11.68,0,0,1,11.61-11.81h.49c5.37,0,8.49,2.83,9.76,5.27l10.45-2.74c-2.25-6.73-9-12.49-20.79-12.49-14.64.1-22.45,10.83-22.45,21.38,0,14.93,8.49,23.42,23.23,23.42,11.22,0,17.66-6.44,20.4-13Z"/><path class="cls-2" d="M141.24,228.7V239H152V228.7Zm0,15.52v42.16H152V244.22Z"/><path class="cls-2" d="M175,243.83a5.22,5.22,0,0,1,1.17-3.62c1.56-2.05,7.42-2.44,11.32-2.05l3.13-9.56-.79-.1a65.14,65.14,0,0,0-9.66-.49h-.1c-2.14,0-8.68.78-12.59,5a12.63,12.63,0,0,0-3.22,9.08v3.61h-7.12v9.86h7.12v30.84H175V255.54h10.44l3.22-10H175Z"/><rect class="cls-2" x="195.21" y="244.22" width="10.74" height="42.17"/><rect class="cls-2" x="195.21" y="228.6" width="10.74" height="10.25"/><path class="cls-2" d="M244.31,271.94c-1.27,3-4.88,5.75-10.84,5.75-8.39,0-11.42-6.83-11.42-13.07a11.69,11.69,0,0,1,11.62-11.81h.49c5.37,0,8.49,2.83,9.76,5.27l10.44-2.74c-2.24-6.73-9-12.59-20.79-12.49-14.74.1-22.45,10.83-22.45,21.38,0,14.93,8.4,23.42,23.23,23.42,11.23,0,17.67-6.44,20.4-13Z"/><path class="cls-2" d="M0,374.52H3.71L14.64,389V374.52h3.71v20.6H14.64L3.71,380.67v14.45H0Z"/><path class="cls-2" d="M38.55,391.41H28.7l-1.57,3.71H22.94l8.59-20.6h4.19l8.59,20.6h-4.1Zm-1.26-3.22-3.62-8.69-3.61,8.69Z"/><path class="cls-2" d="M50.46,377.94H43.92v-3.42H60.81v3.42H54.27v17.18H50.56V377.94Z"/><path class="cls-2" d="M66.18,374.52h3.71v20.6H66.18Z"/><path class="cls-2" d="M75,384.77A10.74,10.74,0,1,1,85.8,395.41h0A10.84,10.84,0,0,1,75,384.77Zm17.77,0a7,7,0,1,0-14,.49,6.94,6.94,0,0,0,7,6.73A7.09,7.09,0,0,0,92.73,384.77Z"/><path class="cls-2" d="M101.22,374.52h3.71L115.76,389V374.52h3.71v20.6h-3.71l-10.83-14.45v14.45h-3.71Z"/><path class="cls-2" d="M139.38,391.41h-9.86l-1.66,3.71h-4.19l8.59-20.6h4.19l8.59,20.6h-4.1ZM138,388.19l-3.62-8.69-3.61,8.69Z"/><path class="cls-2" d="M164.37,391.7v3.42H150.12v-20.6h3.71V391.7Z"/><path class="cls-2" d="M197.07,391.7v3.42H182.82v-20.6h3.71V391.7Z"/><path class="cls-2" d="M217.47,391.41h-10L206,395.12h-4.2l8.59-20.6h4.2l8.59,20.6H219Zm-1.37-3.22-3.61-8.69-3.61,8.69Z"/><path class="cls-2" d="M227.42,374.52h10.06c3.51,0,6.05,2.15,6.05,5.17a5.17,5.17,0,0,1-2.93,4.59c2.34,1.17,3.81,3,3.81,5.27,0,3.32-2.74,5.57-6.54,5.57H227.42Zm9.18,8.39c1.85,0,3.12-1.07,3.12-2.53a2.88,2.88,0,0,0-3.12-2.64h-5.47v5.17Zm.58,9c2,0,3.42-1.26,3.42-2.92a3.13,3.13,0,0,0-3.42-2.93h-6.05v5.85Z"/><path class="cls-2" d="M248,384.77A10.79,10.79,0,1,1,259,395.41h-.1A10.77,10.77,0,0,1,248,384.77Zm17.76,0a7,7,0,1,0-14,.49,7,7,0,0,0,7,6.73A7.15,7.15,0,0,0,265.78,384.77Z"/><path class="cls-2" d="M286.18,395.12l-4.88-6.93h-4v6.93h-3.71v-20.6h9c4.39,0,7.71,2.83,7.71,6.83a6.67,6.67,0,0,1-5,6.44l5.18,7.33Zm-8.78-10.35h4.78c2.54,0,4.3-1.27,4.3-3.42s-1.76-3.41-4.3-3.41H277.4Z"/><path class="cls-2" d="M309.51,391.41h-9.86l-1.56,3.71h-4.2l8.59-20.6h4.2l8.59,20.6h-4.1Zm-1.27-3.22-3.71-8.69-3.61,8.69Z"/><path class="cls-2" d="M321.42,377.94h-6.54v-3.42h16.88v3.42h-6.63v17.18h-3.71Z"/><path class="cls-2" d="M333.23,384.77a10.74,10.74,0,1,1,10.83,10.64h0A10.71,10.71,0,0,1,333.23,384.77Zm17.67,0a7,7,0,1,0-14,.49,6.94,6.94,0,0,0,7,6.73A7.09,7.09,0,0,0,350.9,384.77Z"/><path class="cls-2" d="M372,395.12l-4.88-6.93h-4v6.93h-3.71v-20.6h9c4.39,0,7.71,2.83,7.71,6.83a6.67,6.67,0,0,1-5,6.44l5.17,7.33Zm-8.79-10.35H368c2.53,0,4.29-1.27,4.29-3.42s-1.76-3.41-4.29-3.41h-4.79Z"/><path class="cls-2" d="M386.91,387.4l-8.1-12.88h4.39l5.66,9.27,5.76-9.27h4.2l-8.1,12.88v7.72h-3.81Z"/></svg>