<?xml version="1.0" encoding="UTF-8" standalone="no"?>
<!DOCTYPE svg PUBLIC "-//W3C//DTD SVG 1.1//EN" "http://www.w3.org/Graphics/SVG/1.1/DTD/svg11.dtd">
<svg width="100%" height="100%" viewBox="0 0 247 80" version="1.1" xmlns="http://www.w3.org/2000/svg" xmlns:xlink="http://www.w3.org/1999/xlink" xml:space="preserve" xmlns:serif="http://www.serif.com/" style="fill-rule:evenodd;clip-rule:evenodd;stroke-linejoin:round;stroke-miterlimit:2;">
    <path d="M131.09,2.61C114.208,2.615 100.32,16.508 100.32,33.39C100.32,50.275 114.215,64.17 131.1,64.17C147.985,64.17 161.88,50.275 161.88,33.39C161.858,16.509 147.971,2.626 131.09,2.61ZM131.09,51.05C126.101,51.049 121.569,49.778 118.488,46.84C115.234,43.736 113.567,38.82 113.44,33.39C113.352,29.625 114.559,23.989 118.193,20.515C121.826,17.042 127.885,15.73 131.1,15.73C137.493,15.73 141.675,17.823 144.611,21.43C146.969,24.327 148.707,28.084 148.76,33.39C148.814,38.843 147.136,43.397 144.096,46.449C141.057,49.501 136.657,51.051 131.09,51.05ZM18.2,78.49C15.622,78.49 11.574,77.876 11.5,73.79L11.5,6.13C11.5,3.101 15.622,1.43 18.2,1.43C20.778,1.43 24.9,2.802 24.9,6.13L24.9,73.79C24.922,77.358 20.778,78.49 18.2,78.49ZM236.85,11.75L236.85,71.75C236.731,75.743 233.728,76.45 231.15,76.45C228.572,76.45 224.549,75.536 224.45,71.75L224.45,19.75C224.45,19.54 224.45,19.32 224.04,19.23C223.63,19.14 223.62,19.23 223.54,19.34C223.54,19.34 215.561,47.831 215.51,48.03C213.383,56.36 206.885,57.147 202.73,57.13C198.587,57.12 193.806,55.853 191,48C190.931,47.807 180.97,18.31 180.97,18.31C180.89,18.2 180.75,18.13 180.48,18.2C180.06,18.29 180.06,18.51 180.06,18.72L180.06,60.83C180.049,70.514 171.084,78.479 161.4,78.49L79.16,78.49C59.74,77.99 36.72,65.33 32.34,45.83C30.009,35.838 31.841,25.317 37.41,16.7C43.23,7.79 53.19,3.19 63.41,1.7C68.416,1.419 73.422,2.249 78.07,4.13C87.07,7.96 93.85,17.34 94.07,27.22C94.067,31.852 92.406,36.334 89.39,39.85C86.49,43.28 81.28,46.34 76.7,46.56C75.22,46.63 70.76,46.56 69.89,45.16C68.89,43.47 71.49,43.3 72.55,43.07C77.31,42.07 80.66,39.53 82.55,34.96C86.55,25.32 76.19,16.75 66.99,17.89C57.22,19.1 49.92,28.23 49.76,37.89C49.58,48.15 55.65,56.89 64.41,61.89C73.17,66.89 80.62,68.031 96,68.09L161.31,68.09C165.839,68.085 168.565,65.359 168.57,60.83L168.57,11.75C168.579,6.303 174.063,1.826 179.51,1.826C183.293,1.826 187.656,3.444 189.43,7.38C189.514,7.567 201.46,43.08 201.46,43.08C201.737,43.486 202.174,43.936 202.666,43.936C203.157,43.936 203.643,43.486 203.92,43.08C203.92,43.08 215.924,7.622 216,7.43C217.552,3.511 222.134,1.863 225.92,1.863C231.367,1.863 236.85,6.346 236.85,11.793C236.85,11.796 236.85,11.798 236.85,11.8L236.85,11.75Z" style="fill:url(#_Linear1);fill-rule:nonzero;"/>
    <defs>
        <linearGradient id="_Linear1" x1="0" y1="0" x2="1" y2="0" gradientUnits="userSpaceOnUse" gradientTransform="matrix(91.58,158.62,-158.62,91.58,76.04,-39.62)"><stop offset="0" style="stop-color:rgb(39,168,224);stop-opacity:1"/><stop offset="1" style="stop-color:rgb(24,171,187);stop-opacity:1"/></linearGradient>
    </defs>
</svg>
